<svg id="Layer_1" data-name="Layer 1" xmlns="http://www.w3.org/2000/svg" viewBox="0 0 377.78 377.78"><defs><style>.cls-1{fill:#f47621;}</style></defs><title>kopi</title><path class="cls-1" d="M426.14,387.64c-67.38,67.38-177,67.38-244.39,0s-67.38-177,0-244.39,177-67.37,244.39,0S493.52,320.27,426.14,387.64ZM195.79,157.29c-59.64,59.64-59.64,156.68,0,216.31s156.67,59.64,216.31,0,59.63-156.67,0-216.31S255.42,97.66,195.79,157.29Z" transform="translate(-98.89 -92.72)"/><path class="cls-1" d="M111,381.78H203a0,0,0,0,1,0,0V448a0,0,0,0,1,0,0H111a5,5,0,0,1-5-5v-56.2a5,5,0,0,1,5-5Z" transform="translate(-347.01 138.04) rotate(-45)"/><path class="cls-1" d="M304.14,275.37c-76,1.5-100.26-56.55-107.9-89.17A133.69,133.69,0,0,0,394.93,363.37C393.09,345.81,380.86,273.87,304.14,275.37Z" transform="translate(-98.89 -92.72)"/><path class="cls-1" d="M213,167.53c1.84,17.59,14.08,89.5,90.79,88,76-1.49,100.25,56.55,107.89,89.17A133.68,133.68,0,0,0,213,167.53Z" transform="translate(-98.89 -92.72)"/></svg>